HIERARCHY
ROOT Hips
{
    OFFSET 0.000000 0.000000 0.000000
    CHANNELS 6 Xposition Yposition Zposition Zrotation Xrotation Yrotation
    JOINT Spine
    {
        OFFSET -0.000000 14.517291 0.000000
        CHANNELS 3 Zrotation Xrotation Yrotation
        JOINT Spine1
        {
            OFFSET -0.000000 37.558300 0.000000
            CHANNELS 3 Zrotation Xrotation Yrotation
            JOINT Neck
            {
                OFFSET -0.000000 37.404057 3.400369
                CHANNELS 3 Zrotation Xrotation Yrotation
                JOINT Head
                {
                    OFFSET -0.000000 24.785618 -3.540803
                    CHANNELS 3 Zrotation Xrotation Yrotation
                    End Site
                    {
                        OFFSET -0.000000 35.408028 0.000000
                    }
                }
            }
            JOINT LeftShoulder
            {
                OFFSET 6.992933 33.973492 -0.192664
                CHANNELS 3 Zrotation Xrotation Yrotation
                JOINT LeftArm
                {
                    OFFSET 21.527611 0.000000 0.000000
                    CHANNELS 3 Zrotation Xrotation Yrotation
                    JOINT LeftForeArm
                    {
                        OFFSET 56.353916 0.000000 0.000000
                        CHANNELS 3 Zrotation Xrotation Yrotation
                        JOINT LeftHand
                        {
                            OFFSET 47.774071 0.000000 0.000000
                            CHANNELS 3 Zrotation Xrotation Yrotation
                            End Site
                            {
                                OFFSET 26.556021 0.000000 0.000000
                            }
                        }
                    }
                }
            }
            JOINT RightShoulder
            {
                OFFSET -7.065357 33.973492 -0.192664
                CHANNELS 3 Zrotation Xrotation Yrotation
                JOINT RightArm
                {
                    OFFSET -21.527611 0.000000 0.000000
                    CHANNELS 3 Zrotation Xrotation Yrotation
                    JOINT RightForeArm
                    {
                        OFFSET -56.353916 0.000000 0.000000
                        CHANNELS 3 Zrotation Xrotation Yrotation
                        JOINT RightHand
                        {
                            OFFSET -47.774071 0.000000 0.000000
                            CHANNELS 3 Zrotation Xrotation Yrotation
                            End Site
                            {
                                OFFSET -26.556021 0.000000 0.000000
                            }
                        }
                    }
                }
            }
        }
    }
    JOINT LeftUpLeg
    {
        OFFSET 17.704014 0.000000 0.000000
        CHANNELS 3 Zrotation Xrotation Yrotation
        JOINT LeftLeg
        {
            OFFSET -0.000000 -81.181816 0.000000
            CHANNELS 3 Zrotation Xrotation Yrotation
            JOINT LeftFoot
            {
                OFFSET -0.000000 -62.821102 0.000000
                CHANNELS 3 Zrotation Xrotation Yrotation
                JOINT LeftToeBase
                {
                    OFFSET -0.000000 -11.507608 26.556021
                    CHANNELS 3 Zrotation Xrotation Yrotation
                    End Site
                    {
                        OFFSET -0.000000 0.000000 7.081605
                    }
                }
            }
        }
    }
    JOINT RightUpLeg
    {
        OFFSET -17.704014 0.000000 0.000000
        CHANNELS 3 Zrotation Xrotation Yrotation
        JOINT RightLeg
        {
            OFFSET -0.000000 -81.181816 0.000000
            CHANNELS 3 Zrotation Xrotation Yrotation
            JOINT RightFoot
            {
                OFFSET -0.000000 -62.821102 0.000000
                CHANNELS 3 Zrotation Xrotation Yrotation
                JOINT RightToeBase
                {
                    OFFSET -0.000000 -11.507608 26.556021
                    CHANNELS 3 Zrotation Xrotation Yrotation
                    End Site
                    {
                        OFFSET -0.000000 0.000000 7.081605
                    }
                }
            }
        }
    }
}
MOTION
Frames:    5
Frame Time:    0.008333
-24.870739    153.149323    -31.272608    -0.165575    3.120017    19.700151    -2.338426    3.481670    7.984648    -1.957173    -0.712559    2.626664    -3.457967    5.417318    -13.794472    15.259560    -9.875757    -10.584866    1.385901    4.633055    -8.567634    -36.818424    14.022459    -57.163704    -2.077641    -31.861938    -123.115112    -7.563693    -34.438087    -11.461601    0.736152    9.268145    0.832416    48.028118    -6.133399    57.118591    -40.730110    -47.385208    85.834480    7.121178    -10.823844    28.512966    -1.708047    -33.747013    -28.799908    -11.497265    24.102913    -23.316469    -8.529886    -0.719092    33.339035    0.000000    0.000000    0.000000    0.986155    8.065224    -22.044764    2.942344    23.260914    -5.294361    2.162312    -29.280725    -9.134472    0.000000    0.000000    0.000000    
-24.869602    153.160522    -31.280169    -0.167862    3.114113    19.693499    -2.338853    3.485055    7.987729    -1.957678    -0.708515    2.627732    -3.474417    5.425683    -13.792451    15.291167    -9.901170    -10.570889    1.386873    4.629765    -8.568262    -36.811375    14.025907    -57.166580    -2.078999    -31.867489    -123.109169    -7.575953    -34.443687    -11.467396    0.747710    9.272975    0.840708    48.040138    -6.103910    57.141109    -40.768780    -47.405308    85.786064    7.117319    -10.847116    28.491127    -1.687308    -33.725903    -28.781393    -11.491000    24.063366    -23.302477    -8.555896    -0.718916    33.317230    0.000000    0.000000    0.000000    0.993660    8.077540    -22.026005    2.939998    23.243996    -5.304471    2.183307    -29.276060    -9.101248    0.000000    0.000000    0.000000    
-24.868458    153.169083    -31.297180    -0.168989    3.119389    19.691509    -2.333281    3.489785    7.983889    -1.971335    -0.712343    2.626339    -3.477606    5.441925    -13.794907    15.307071    -9.941694    -10.564774    1.390612    4.629378    -8.558284    -36.801006    14.027979    -57.175655    -2.076695    -31.884668    -123.100700    -7.614204    -34.451981    -11.488286    0.752236    9.280446    0.848130    48.064857    -6.076405    57.169666    -40.786434    -47.421677    85.755959    7.119970    -10.874256    28.461943    -1.679093    -33.720570    -28.761461    -11.483252    24.031305    -23.299288    -8.584497    -0.709022    33.312992    0.000000    0.000000    0.000000    0.993669    8.072156    -21.997145    2.958610    23.213411    -5.313925    2.138915    -29.249218    -9.168289    0.000000    0.000000    0.000000    
-24.864733    153.178711    -31.309219    -0.172038    3.117833    19.687595    -2.326512    3.491974    7.985534    -1.976377    -0.706997    2.626989    -3.484469    5.439797    -13.797132    15.311597    -9.956016    -10.563461    1.392833    4.620675    -8.559380    -36.806366    14.024028    -57.178467    -2.083489    -31.876970    -123.099823    -7.597962    -34.456524    -11.479854    0.745622    9.278069    0.859384    48.091908    -6.039755    57.187958    -40.843170    -47.449425    85.687752    7.119083    -10.900023    28.470619    -1.665789    -33.707233    -28.742968    -11.471467    23.997034    -23.303495    -8.635256    -0.715002    33.311722    0.000000    0.000000    0.000000    0.996538    8.078789    -21.972017    2.965153    23.187664    -5.336720    2.153502    -29.232573    -9.151573    0.000000    0.000000    0.000000    
-24.863930    153.184097    -31.321209    -0.172493    3.114097    19.683216    -2.324306    3.495518    7.990588    -1.979424    -0.698963    2.628811    -3.483549    5.439441    -13.802457    15.306665    -9.979121    -10.567230    1.389525    4.623206    -8.558501    -36.783424    14.028624    -57.201027    -2.067460    -31.907829    -123.079124    -7.609356    -34.458729    -11.499373    0.750393    9.283678    0.855985    48.111855    -6.015521    57.218155    -40.846966    -47.454823    85.666969    7.119434    -10.921671    28.432692    -1.651153    -33.693630    -28.708227    -11.464498    23.968016    -23.282551    -8.656007    -0.706050    33.279892    0.000000    0.000000    0.000000    0.998569    8.089935    -21.951096    2.973082    23.162811    -5.346894    2.158928    -29.220999    -9.144000    0.000000    0.000000    0.000000    
